<svg width="89" height="80" viewBox="0 0 89 80" fill="none" xmlns="http://www.w3.org/2000/svg">
<g filter="url(#filter0_d_2545_295)">
<path d="M49.417 0.175781C52.5664 0.175781 55.5869 1.42689 57.8139 3.65389C60.0409 5.88088 61.292 8.90134 61.292 12.0508H73.167C75.2666 12.0508 77.2803 12.8849 78.7649 14.3695C80.2496 15.8542 81.0837 17.8678 81.0837 19.9674V63.5091C81.0837 65.6087 80.2496 67.6224 78.7649 69.107C77.2803 70.5917 75.2666 71.4258 73.167 71.4258H9.83366C7.73403 71.4258 5.72039 70.5917 4.23573 69.107C2.75107 67.6224 1.91699 65.6087 1.91699 63.5091V19.9674C1.91699 17.8678 2.75107 15.8542 4.23573 14.3695C5.72039 12.8849 7.73403 12.0508 9.83366 12.0508H21.7087C21.7087 8.90134 22.9598 5.88088 25.1868 3.65389C27.4138 1.42689 30.4342 0.175781 33.5837 0.175781H49.417ZM37.542 35.8008H9.83366V63.5091H73.167V35.8008H45.4587V39.7591C45.4575 40.768 45.0712 41.7384 44.3786 42.472C43.6861 43.2057 42.7395 43.6471 41.7323 43.7063C40.7251 43.7654 39.7334 43.4377 38.9597 42.7901C38.1861 42.1426 37.6889 41.2241 37.5697 40.2222L37.542 39.7591V35.8008ZM73.167 19.9674H9.83366V27.8841H73.167V19.9674ZM49.417 8.09245H33.5837C32.6141 8.09258 31.6784 8.44852 30.9539 9.09278C30.2293 9.73703 29.7665 10.6248 29.653 11.5877L29.6253 12.0508H53.3753C53.3752 11.0813 53.0193 10.1455 52.375 9.42098C51.7307 8.69646 50.843 8.23359 49.8801 8.12016L49.417 8.09245Z" fill="#030037"/>
</g>
<defs>
<filter id="filter0_d_2545_295" x="0.916992" y="0.175781" width="87.167" height="79.25" filterUnits="userSpaceOnUse" color-interpolation-filters="sRGB">
<feFlood flood-opacity="0" result="BackgroundImageFix"/>
<feColorMatrix in="SourceAlpha" type="matrix" values="0 0 0 0 0 0 0 0 0 0 0 0 0 0 0 0 0 0 127 0" result="hardAlpha"/>
<feOffset dx="3" dy="4"/>
<feGaussianBlur stdDeviation="2"/>
<feComposite in2="hardAlpha" operator="out"/>
<feColorMatrix type="matrix" values="0 0 0 0 0.0117647 0 0 0 0 0 0 0 0 0 0.215686 0 0 0 0.25 0"/>
<feBlend mode="normal" in2="BackgroundImageFix" result="effect1_dropShadow_2545_295"/>
<feBlend mode="normal" in="SourceGraphic" in2="effect1_dropShadow_2545_295" result="shape"/>
</filter>
</defs>
</svg>
