<svg width="93" height="81" viewBox="0 0 93 81" fill="none" xmlns="http://www.w3.org/2000/svg">
<g filter="url(#filter0_d_2545_269)">
<path d="M81.3753 13.458C82.4914 13.458 83.5619 13.9014 84.3511 14.6906C85.1403 15.4798 85.5837 16.5502 85.5837 17.6663C85.5837 18.7825 85.1403 19.8529 84.3511 20.6421C83.5619 21.4313 82.4914 21.8747 81.3753 21.8747V63.958C82.4914 63.958 83.5619 64.4014 84.3511 65.1906C85.1403 65.9798 85.5837 67.0502 85.5837 68.1663C85.5837 69.2825 85.1403 70.3529 84.3511 71.1421C83.5619 71.9313 82.4914 72.3747 81.3753 72.3747H5.62533C4.50921 72.3747 3.4388 71.9313 2.64958 71.1421C1.86037 70.3529 1.41699 69.2825 1.41699 68.1663C1.41699 67.0502 1.86037 65.9798 2.64958 65.1906C3.4388 64.4014 4.50921 63.958 5.62533 63.958V21.8747C4.50921 21.8747 3.4388 21.4313 2.64958 20.6421C1.86037 19.8529 1.41699 18.7825 1.41699 17.6663C1.41699 16.5502 1.86037 15.4798 2.64958 14.6906C3.4388 13.9014 4.50921 13.458 5.62533 13.458H81.3753ZM22.4587 30.2913C21.3425 30.2913 20.2721 30.7347 19.4829 31.5239C18.6937 32.3132 18.2503 33.3836 18.2503 34.4997V63.958H26.667V34.4997C26.667 33.3836 26.2236 32.3132 25.4344 31.5239C24.6452 30.7347 23.5748 30.2913 22.4587 30.2913ZM43.5003 30.2913C42.3842 30.2913 41.3138 30.7347 40.5246 31.5239C39.7354 32.3132 39.292 33.3836 39.292 34.4997V63.958H47.7087V34.4997C47.7087 33.3836 47.2653 32.3132 46.4761 31.5239C45.6869 30.7347 44.6164 30.2913 43.5003 30.2913ZM64.542 30.2913C63.4259 30.2913 62.3555 30.7347 61.5662 31.5239C60.777 32.3132 60.3337 33.3836 60.3337 34.4997V63.958H68.7503V34.4997C68.7503 33.3836 68.307 32.3132 67.5177 31.5239C66.7285 30.7347 65.6581 30.2913 64.542 30.2913ZM68.7503 0.833008C69.8664 0.833008 70.9369 1.27639 71.7261 2.0656C72.5153 2.85482 72.9587 3.92522 72.9587 5.04134C72.9587 6.15746 72.5153 7.22787 71.7261 8.01708C70.9369 8.8063 69.8664 9.24967 68.7503 9.24967H18.2503C17.1342 9.24967 16.0638 8.8063 15.2746 8.01708C14.4854 7.22787 14.042 6.15746 14.042 5.04134C14.042 3.92522 14.4854 2.85482 15.2746 2.0656C16.0638 1.27639 17.1342 0.833008 18.2503 0.833008H68.7503Z" fill="#030037"/>
</g>
<defs>
<filter id="filter0_d_2545_269" x="0.416992" y="0.833008" width="92.167" height="79.542" filterUnits="userSpaceOnUse" color-interpolation-filters="sRGB">
<feFlood flood-opacity="0" result="BackgroundImageFix"/>
<feColorMatrix in="SourceAlpha" type="matrix" values="0 0 0 0 0 0 0 0 0 0 0 0 0 0 0 0 0 0 127 0" result="hardAlpha"/>
<feOffset dx="3" dy="4"/>
<feGaussianBlur stdDeviation="2"/>
<feComposite in2="hardAlpha" operator="out"/>
<feColorMatrix type="matrix" values="0 0 0 0 0.0117647 0 0 0 0 0 0 0 0 0 0.215686 0 0 0 0.24 0"/>
<feBlend mode="normal" in2="BackgroundImageFix" result="effect1_dropShadow_2545_269"/>
<feBlend mode="normal" in="SourceGraphic" in2="effect1_dropShadow_2545_269" result="shape"/>
</filter>
</defs>
</svg>
