<svg width="85" height="85" viewBox="0 0 85 85" fill="none" xmlns="http://www.w3.org/2000/svg">
<g filter="url(#filter0_d_2545_274)">
<path fill-rule="evenodd" clip-rule="evenodd" d="M26.8748 0.625C27.9056 0.625136 28.9004 1.00357 29.6707 1.68851C30.441 2.37346 30.9331 3.31728 31.0537 4.34096L31.0831 4.83333L31.1042 8.4525L31.2052 13.5235L31.3483 18.018L31.5082 21.9865L31.7186 26.4768L45.7534 18.0601C46.3553 17.6993 47.0379 17.4947 47.7391 17.465C48.4403 17.4353 49.1378 17.5814 49.7681 17.8901C50.3984 18.1987 50.9415 18.6601 51.348 19.2323C51.7544 19.8044 52.0113 20.4691 52.0953 21.1659L52.1248 21.6667V30.6388L70.8308 18.1653C71.4283 17.7663 72.1181 17.5268 72.8344 17.4698C73.5506 17.4128 74.2695 17.5401 74.9227 17.8397C75.5758 18.1392 76.1413 18.601 76.5654 19.1811C76.9895 19.7611 77.258 20.4401 77.3453 21.1532L77.3748 21.6667V72.1667C77.3747 73.1974 76.9962 74.1923 76.3113 74.9626C75.6263 75.7328 74.6825 76.2249 73.6588 76.3455L73.1665 76.375H5.83313C5.24693 76.3686 4.66839 76.2411 4.13387 76.0003C3.59935 75.7596 3.12041 75.4109 2.72715 74.9761C2.33389 74.5414 2.03482 74.03 1.84873 73.474C1.66264 72.9181 1.59356 72.3297 1.64584 71.7458L2.04984 67.6385L2.77788 59.8278L3.548 50.8346L4.06563 44.2444L4.39388 39.6531L4.92413 31.3458L5.30709 24.1917L5.62692 16.4063L5.73634 12.5346L5.83313 6.26417V4.83333C5.83326 3.80257 6.21169 2.80771 6.89664 2.03743C7.58158 1.26716 8.5254 0.775057 9.54909 0.654458L10.0415 0.625H26.8748ZM22.6959 9.04167H14.2203L14.073 15.5225L13.8121 22.4662L13.446 29.7888L13.2019 33.9382L12.8063 39.9771L12.0488 50.1445L11.4176 57.6774L10.6769 65.8247L10.4749 67.9583H26.4413L25.8522 61.6753L25.3303 55.7415L24.8674 50.1445L24.1099 39.9771L23.7143 33.9382L23.2683 25.9676L23.0578 21.3721L22.818 14.664L22.7254 10.9017L22.6959 9.04167ZM43.7081 46.9167C42.6774 46.9168 41.6825 47.2952 40.9122 47.9802C40.142 48.6651 39.6499 49.6089 39.5293 50.6326L39.4998 51.125V55.3333C39.501 56.406 39.9117 57.4376 40.648 58.2176C41.3844 58.9975 42.3907 59.4669 43.4615 59.5298C44.5323 59.5926 45.5866 59.2442 46.4092 58.5558C47.2317 57.8674 47.7603 56.8908 47.887 55.8257L47.9165 55.3333V51.125C47.9165 50.0089 47.4731 48.9385 46.6839 48.1493C45.8946 47.36 44.8242 46.9167 43.7081 46.9167ZM60.5415 46.9167C59.4253 46.9167 58.3549 47.36 57.5657 48.1493C56.7765 48.9385 56.3331 50.0089 56.3331 51.125V55.3333C56.3331 56.4495 56.7765 57.5199 57.5657 58.3091C58.3549 59.0983 59.4253 59.5417 60.5415 59.5417C61.6576 59.5417 62.728 59.0983 63.5172 58.3091C64.3064 57.5199 64.7498 56.4495 64.7498 55.3333V51.125C64.7498 50.0089 64.3064 48.9385 63.5172 48.1493C62.728 47.36 61.6576 46.9167 60.5415 46.9167Z" fill="#030037"/>
</g>
<defs>
<filter id="filter0_d_2545_274" x="0.628906" y="0.625" width="83.7461" height="83.75" filterUnits="userSpaceOnUse" color-interpolation-filters="sRGB">
<feFlood flood-opacity="0" result="BackgroundImageFix"/>
<feColorMatrix in="SourceAlpha" type="matrix" values="0 0 0 0 0 0 0 0 0 0 0 0 0 0 0 0 0 0 127 0" result="hardAlpha"/>
<feOffset dx="3" dy="4"/>
<feGaussianBlur stdDeviation="2"/>
<feComposite in2="hardAlpha" operator="out"/>
<feColorMatrix type="matrix" values="0 0 0 0 0.0117647 0 0 0 0 0 0 0 0 0 0.215686 0 0 0 0.25 0"/>
<feBlend mode="normal" in2="BackgroundImageFix" result="effect1_dropShadow_2545_274"/>
<feBlend mode="normal" in="SourceGraphic" in2="effect1_dropShadow_2545_274" result="shape"/>
</filter>
</defs>
</svg>
