<svg width="86" height="78" viewBox="0 0 86 78" fill="none" xmlns="http://www.w3.org/2000/svg">
<g filter="url(#filter0_d_2545_291)">
<path fill-rule="evenodd" clip-rule="evenodd" d="M37.1368 34.1951L38.0032 34.3868L52.2478 37.9441C56.7367 39.0673 58.9945 43.8014 57.5762 48.0641L58.8028 47.2208L61.2792 45.4498C62.525 44.5681 63.7977 43.7324 65.1202 43.0731C71.0082 40.1291 77.9005 44.1886 78.3145 50.6286L78.3337 51.2419V51.4528C78.3337 54.1246 77.1837 56.6546 75.1903 58.4064L74.6268 58.8664L62.8585 67.6908C61.7123 68.5494 60.4205 69.1858 59.0482 69.5691L58.2125 69.7684L45.9075 72.2294C42.0859 72.9926 38.1224 72.5728 34.5455 71.0258L33.5795 70.5773L24.5712 66.0731C24.1737 65.8726 23.7443 65.7429 23.3023 65.6898L22.8577 65.6668H19.8063C19.1884 66.7372 18.3209 67.6424 17.2777 68.3052C16.2344 68.968 15.0464 69.3687 13.8148 69.4733L13.167 69.5001H9.33366C7.39945 69.5007 5.53649 68.7702 4.11822 67.455C2.69996 66.1398 1.83122 64.3372 1.68616 62.4084L1.66699 61.8334V46.5001C1.66735 44.5665 2.39828 42.7045 3.71337 41.2871C5.02845 39.8696 6.83056 39.0014 8.75866 38.8564L9.33366 38.8334H13.167C15.0223 38.8334 16.7243 39.4928 18.0507 40.5929L18.5298 41.0223L26.1582 36.2574C29.1695 34.3747 32.741 33.5956 36.2628 34.0533L37.1368 34.1951ZM30.2215 42.7588L20.8337 48.6238V58.0001H22.8577C24.6435 58.0002 26.4048 58.4163 28.002 59.2153L37.0103 63.7194C39.2979 64.8625 41.9012 65.2105 44.4087 64.7084L56.7098 62.2474C57.2712 62.1361 57.8004 61.9004 58.2585 61.5574L70.0268 52.7293C70.5175 52.3613 70.667 51.8208 70.667 51.2381C70.6671 51.0025 70.6104 50.7704 70.5016 50.5614C70.3928 50.3524 70.2353 50.1728 70.0422 50.0377C69.8492 49.9027 69.6265 49.8161 69.3929 49.7855C69.1593 49.7549 68.9218 49.7811 68.7005 49.8619L59.3932 56.0719C57.5027 57.3308 55.2819 58.0017 53.0107 58.0001H40.0003V50.3334H45.9765C46.7807 50.3328 47.5644 50.0793 48.2165 49.6087C48.8687 49.1382 49.3564 48.4744 49.6105 47.7114L50.3887 45.3808L36.144 41.8234C35.1446 41.5734 34.1051 41.5274 33.0875 41.6881C32.0699 41.8488 31.0952 42.2129 30.2215 42.7588ZM13.167 46.5001H9.33366V61.8334H13.167V46.5001ZM55.3337 2.30176C59.282 -0.166905 63.813 0.0285954 67.47 2.15993C71.7327 4.64393 74.623 9.60426 74.4965 15.2776C74.3393 22.3118 69.0915 28.0963 61.3175 32.9109L59.7918 33.8271C58.4195 34.6398 56.9552 35.4294 55.3337 35.4294C53.7122 35.4294 52.2478 34.6398 50.8755 33.8271L49.3498 32.9071C41.572 28.0924 36.328 22.3118 36.167 15.2738C36.0405 9.60043 38.9308 4.64009 43.1935 2.15609C46.8505 0.0247616 51.3777 -0.170738 55.3298 2.29793L55.3337 2.30176ZM63.6098 8.78393C62.157 7.94059 60.4282 7.84093 58.7108 9.30526L57.9212 10.0336C57.1857 10.6189 56.2736 10.9375 55.3337 10.9375C54.3937 10.9375 53.4816 10.6189 52.7462 10.0336L51.9565 9.30526C50.2353 7.84093 48.5065 7.93676 47.0575 8.78393C45.2903 9.81509 43.7685 12.1189 43.8375 15.1089C43.9027 18.0913 46.2065 21.9323 53.2982 26.3368L54.2105 26.8888L55.3337 27.5443L56.4568 26.8926C64.2653 22.2466 66.7608 18.2101 66.8337 15.0974C66.9027 12.1113 65.3808 9.80743 63.6137 8.77626L63.6098 8.78393Z" fill="#030037"/>
</g>
<defs>
<filter id="filter0_d_2545_291" x="0.666992" y="0.501953" width="84.667" height="80.0986" filterUnits="userSpaceOnUse" color-interpolation-filters="sRGB">
<feFlood flood-opacity="0" result="BackgroundImageFix"/>
<feColorMatrix in="SourceAlpha" type="matrix" values="0 0 0 0 0 0 0 0 0 0 0 0 0 0 0 0 0 0 127 0" result="hardAlpha"/>
<feOffset dx="3" dy="4"/>
<feGaussianBlur stdDeviation="2"/>
<feComposite in2="hardAlpha" operator="out"/>
<feColorMatrix type="matrix" values="0 0 0 0 0.0117647 0 0 0 0 0 0 0 0 0 0.215686 0 0 0 0.25 0"/>
<feBlend mode="normal" in2="BackgroundImageFix" result="effect1_dropShadow_2545_291"/>
<feBlend mode="normal" in="SourceGraphic" in2="effect1_dropShadow_2545_291" result="shape"/>
</filter>
</defs>
</svg>
