<?xml version="1.0" encoding="UTF-8" standalone="no"?>
<svg
   width="139.96112"
   zoomAndPan="magnify"
   viewBox="0 0 104.97084 139.96494"
   height="186.61992"
   preserveAspectRatio="xMidYMid"
   version="1.0"
   id="svg41"
   sodipodi:docname="MedinaDrop.svg"
   inkscape:version="1.3.2 (091e20e, 2023-11-25, custom)"
   xmlns:inkscape="http://www.inkscape.org/namespaces/inkscape"
   xmlns:sodipodi="http://sodipodi.sourceforge.net/DTD/sodipodi-0.dtd"
   xmlns="http://www.w3.org/2000/svg"
   xmlns:svg="http://www.w3.org/2000/svg">
  <sodipodi:namedview
     id="namedview41"
     pagecolor="#ffffff"
     bordercolor="#000000"
     borderopacity="0.25"
     inkscape:showpageshadow="2"
     inkscape:pageopacity="0.0"
     inkscape:pagecheckerboard="0"
     inkscape:deskcolor="#d1d1d1"
     inkscape:zoom="1.0988439"
     inkscape:cx="-40.497107"
     inkscape:cy="235.24724"
     inkscape:window-width="1920"
     inkscape:window-height="991"
     inkscape:window-x="-9"
     inkscape:window-y="575"
     inkscape:window-maximized="1"
     inkscape:current-layer="svg41" />
  <defs
     id="defs2">
    <g
       id="g1" />
    <clipPath
       id="53e91fcc50">
      <path
         d="m 164,57.015625 h 75 V 187 h -75 z m 0,0"
         clip-rule="nonzero"
         id="path1" />
    </clipPath>
    <clipPath
       id="830ec97be9">
      <path
         d="m 187,57.015625 h 52 V 144 h -52 z m 0,0"
         clip-rule="nonzero"
         id="path2" />
    </clipPath>
    <clipPath
       clipPathUnits="userSpaceOnUse"
       id="clipPath41">
      <rect
         style="fill:#000000;stroke-width:0.75"
         id="rect42"
         width="223.4556"
         height="166.50578"
         x="72.876442"
         y="47.297298" />
    </clipPath>
    <clipPath
       clipPathUnits="userSpaceOnUse"
       id="clipPath42">
      <rect
         style="fill:#000000;stroke-width:0.75"
         id="rect43"
         width="223.4556"
         height="166.50578"
         x="72.876442"
         y="47.297298" />
    </clipPath>
    <clipPath
       clipPathUnits="userSpaceOnUse"
       id="clipPath43">
      <rect
         style="fill:#000000;stroke-width:0.75"
         id="rect44"
         width="223.4556"
         height="166.50578"
         x="72.876442"
         y="47.297298" />
    </clipPath>
    <clipPath
       clipPathUnits="userSpaceOnUse"
       id="clipPath44">
      <rect
         style="fill:#000000;stroke-width:0.75"
         id="rect45"
         width="223.4556"
         height="166.50578"
         x="72.876442"
         y="47.297298" />
    </clipPath>
    <clipPath
       clipPathUnits="userSpaceOnUse"
       id="clipPath45">
      <rect
         style="fill:#000000;stroke-width:0.75"
         id="rect46"
         width="223.4556"
         height="166.50578"
         x="72.876442"
         y="47.297298" />
    </clipPath>
    <clipPath
       clipPathUnits="userSpaceOnUse"
       id="clipPath46">
      <rect
         style="fill:#000000;stroke-width:0.75"
         id="rect47"
         width="223.4556"
         height="166.50578"
         x="72.876442"
         y="47.297298" />
    </clipPath>
    <clipPath
       clipPathUnits="userSpaceOnUse"
       id="clipPath47">
      <rect
         style="fill:#000000;stroke-width:0.75"
         id="rect48"
         width="223.4556"
         height="166.50578"
         x="72.876442"
         y="47.297298" />
    </clipPath>
    <clipPath
       clipPathUnits="userSpaceOnUse"
       id="clipPath48">
      <rect
         style="fill:#000000;stroke-width:0.75"
         id="rect49"
         width="223.4556"
         height="166.50578"
         x="72.876442"
         y="47.297298" />
    </clipPath>
    <clipPath
       clipPathUnits="userSpaceOnUse"
       id="clipPath49">
      <rect
         style="fill:#000000;stroke-width:0.75"
         id="rect50"
         width="223.4556"
         height="166.50578"
         x="72.876442"
         y="47.297298" />
    </clipPath>
    <clipPath
       clipPathUnits="userSpaceOnUse"
       id="clipPath50">
      <rect
         style="fill:#000000;stroke-width:0.75"
         id="rect51"
         width="223.4556"
         height="166.50578"
         x="72.876442"
         y="47.297298" />
    </clipPath>
    <clipPath
       clipPathUnits="userSpaceOnUse"
       id="clipPath51">
      <rect
         style="fill:#000000;stroke-width:0.75"
         id="rect52"
         width="223.4556"
         height="166.50578"
         x="72.876442"
         y="47.297298" />
    </clipPath>
    <clipPath
       clipPathUnits="userSpaceOnUse"
       id="clipPath52">
      <rect
         style="fill:#000000;stroke-width:0.75"
         id="rect53"
         width="223.4556"
         height="166.50578"
         x="72.876442"
         y="47.297298" />
    </clipPath>
    <clipPath
       clipPathUnits="userSpaceOnUse"
       id="clipPath53">
      <rect
         style="fill:#000000;stroke-width:0.75"
         id="rect54"
         width="223.4556"
         height="166.50578"
         x="72.876442"
         y="47.297298" />
    </clipPath>
    <clipPath
       clipPathUnits="userSpaceOnUse"
       id="clipPath54">
      <rect
         style="fill:#000000;stroke-width:0.75"
         id="rect55"
         width="223.4556"
         height="166.50578"
         x="72.876442"
         y="47.297298" />
    </clipPath>
    <clipPath
       clipPathUnits="userSpaceOnUse"
       id="clipPath55">
      <rect
         style="fill:#000000;stroke-width:0.75"
         id="rect56"
         width="223.4556"
         height="166.50578"
         x="72.876442"
         y="47.297298" />
    </clipPath>
    <clipPath
       clipPathUnits="userSpaceOnUse"
       id="clipPath56">
      <rect
         style="fill:#000000;stroke-width:0.75"
         id="rect57"
         width="223.4556"
         height="166.50578"
         x="72.876442"
         y="47.297298" />
    </clipPath>
    <clipPath
       clipPathUnits="userSpaceOnUse"
       id="clipPath57">
      <rect
         style="fill:#000000;stroke-width:0.75"
         id="rect58"
         width="223.4556"
         height="166.50578"
         x="72.876442"
         y="47.297298" />
    </clipPath>
  </defs>
  <path
     fill="#0d62ad"
     d="m 139.96875,120.32031 c -5.76172,10.17969 -7.55859,21.17188 -4.58984,33.14063 6.99218,28.15234 38.27734,53.55468 66.49218,39.55078 15.57032,-7.72656 21.73047,-26.64844 11.02735,-41.30469 -5.86719,-8.03125 -15.2461,-14.79297 -25.51172,-21.23047 -13.20313,-8.03515 -32.4336,-20.87109 -30.44531,-38.562498 -7.63282,8.292968 -12.82032,17.839848 -6.78125,28.472658 4.63281,8.16015 13.34375,15.63672 24.34765,22.73437 4.71485,3.48047 9.29688,7.09766 12.625,11.91407 9.3711,13.57031 -1.38281,22.75781 -15.14453,21.19531 -13.63672,-1.54688 -20.28906,-8.20703 -23.26562,-17.55078 5.30468,4.29297 10.79296,8.26172 17.26562,9.95703 10.66016,2.79297 13.49219,-3.8125 10.42969,-11.09766 -1.6211,-3.84375 -4.60938,-7.48047 -8.22656,-10.38672 -11.24219,-9.02734 -18.17579,-14.96093 -28.22266,-26.83203"
     fill-opacity="1"
     fill-rule="evenodd"
     id="path3"
     clip-path="url(#clipPath57)"
     transform="translate(-133.96667,-57.015625)" />
  <path
     fill="#034e8f"
     d="m 208.00781,189.00781 c 10.85938,-9.10156 14.05078,-24.76562 4.89453,-37.30078 -5.86718,-8.03125 -15.24609,-14.79297 -25.51172,-21.23047 -13.20312,-8.03515 -32.42968,-20.87109 -30.44531,-38.562498 -4.51953,12.999998 -2.33984,21.816408 7.30078,31.085938 11.90625,11.44922 27.80078,19.79687 38.53125,32.14062 7.70313,8.8711 11.75782,19.52735 5.23047,33.86719"
     fill-opacity="1"
     fill-rule="evenodd"
     id="path4"
     clip-path="url(#clipPath56)"
     transform="translate(-133.96667,-57.015625)" />
  <path
     fill="#034e8f"
     d="m 177.55859,163.30078 c 0.11328,-1.74219 -0.28515,-3.72656 -1.14453,-5.76953 -1.62109,-3.84766 -4.60937,-7.48438 -8.22656,-10.38672 -11.24219,-9.02344 -18.17578,-14.95703 -28.22266,-26.82422 10.01953,24.91406 29.74219,25.2461 37.59375,42.98047"
     fill-opacity="1"
     fill-rule="evenodd"
     id="path5"
     clip-path="url(#clipPath55)"
     transform="translate(-133.96667,-57.015625)" />
  <g
     clip-path="url(#clipPath54)"
     id="g6"
     transform="translate(-133.96667,-57.015625)">
    <path
       fill="#0098da"
       d="m 187.57031,57.015625 c -12.83203,9.847656 -28.74609,23.386719 -21.24609,39.34375 6.21094,13.207035 26.02734,25.492185 37.30469,34.624995 20.27343,16.41016 35.73046,29.54297 15.30859,55.26954 16.79687,-15.92579 23.65234,-34.29688 7.48828,-53.42969 -4.47266,-5.28906 -9.79297,-10.22656 -15.89062,-14.85156 C 199.01562,109.25 182.36719,99.5625 182.26172,83.246094 c 9.86328,15.179687 18.55469,19.101566 31.92187,28.816406 12.41016,9.01953 20.58985,19.45703 24.75391,31.22266 -1.09375,-13.48047 -6.24219,-25.61328 -14.45313,-36.72266 -6.00781,-8.128906 -13.625,-15.660156 -20.79687,-23.445312 -8.06641,-8.761719 -12.48438,-14.246094 -16.11719,-26.101563"
       fill-opacity="1"
       fill-rule="evenodd"
       id="path6" />
  </g>
  <g
     clip-path="url(#clipPath53)"
     id="g7"
     transform="translate(-133.96667,-57.015625)">
    <path
       fill="#007fb5"
       d="m 236.73047,137.94922 c 0.82812,1.75 1.5625,3.52734 2.20703,5.33594 -1.09375,-13.48047 -6.24219,-25.61328 -14.45313,-36.72266 -6.00781,-8.128906 -13.625,-15.660156 -20.79687,-23.445312 -8.07031,-8.757813 -12.48438,-14.238282 -16.11719,-26.097657 0.0625,8.523438 1.95703,15.996094 5.91406,23.496094 4.77344,9.039063 10.91016,13.582031 19.03125,21.179685 3.90625,3.66016 7.5625,7.5586 10.92579,11.73828 5.44921,6.76172 11.6875,16.04297 13.28906,24.51563 z m 0,0"
       fill-opacity="1"
       fill-rule="evenodd"
       id="path7" />
  </g>
  <path
     fill="#007fb5"
     d="m 167.15625,77.902344 c -3.03125,5.679687 -3.93359,11.859375 -0.83594,18.457031 6.21094,13.207035 26.02735,25.492185 37.30469,34.624995 5.79297,4.6875 11.19141,9.11329 15.47266,13.63672 -12.42579,-17.22656 -32.85938,-27.04296 -44.375,-43.3789 -4.89844,-6.949221 -7.86719,-14.722659 -7.56641,-23.339846"
     fill-opacity="1"
     fill-rule="evenodd"
     id="path8"
     clip-path="url(#clipPath52)"
     transform="translate(-133.96667,-57.015625)" />
  <g
     fill="#000000"
     fill-opacity="1"
     id="g11"
     clip-path="url(#clipPath51)"
     transform="translate(-133.96667,-57.015625)">
    <g
       transform="translate(146.80078,277.30867)"
       id="g10">
      <g
         id="g9">
        <path
           d="m 2.140625,-10.28125 c -0.273437,0 -0.492187,-0.08203 -0.65625,-0.25 -0.167969,-0.175781 -0.25,-0.394531 -0.25,-0.65625 0,-0.257812 0.082031,-0.472656 0.25,-0.640625 0.164063,-0.164063 0.382813,-0.25 0.65625,-0.25 0.269531,0 0.488281,0.08594 0.65625,0.25 0.175781,0.167969 0.265625,0.382813 0.265625,0.640625 0,0.261719 -0.089844,0.480469 -0.265625,0.65625 -0.167969,0.167969 -0.386719,0.25 -0.65625,0.25 z M 1.5,0 V -8.625 H 2.78125 V 0 Z m 0,0"
           id="path9" />
      </g>
    </g>
  </g>
  <g
     fill="#000000"
     fill-opacity="1"
     id="g14"
     clip-path="url(#clipPath50)"
     transform="translate(-133.96667,-57.015625)">
    <g
       transform="translate(151.07317,277.30867)"
       id="g13">
      <g
         id="g12">
        <path
           d="m 4.4375,3.65625 c -1.355469,0 -2.34375,-0.230469 -2.96875,-0.6875 -0.625,-0.449219 -0.9375,-1.046875 -0.9375,-1.796875 0,-0.480469 0.144531,-0.867187 0.4375,-1.15625 0.289062,-0.289063 0.710938,-0.5 1.265625,-0.625 v -0.15625 C 1.972656,-0.921875 1.773438,-1.097656 1.640625,-1.296875 1.503906,-1.503906 1.4375,-1.75 1.4375,-2.03125 c 0,-0.332031 0.101562,-0.601562 0.3125,-0.8125 0.21875,-0.207031 0.535156,-0.363281 0.953125,-0.46875 v -0.171875 c -0.9375,-0.488281 -1.40625,-1.289063 -1.40625,-2.40625 0,-0.5625 0.125,-1.0625 0.375,-1.5 0.257813,-0.4375 0.625,-0.773437 1.09375,-1.015625 0.476563,-0.25 1.03125,-0.375 1.65625,-0.375 0.726563,0 1.332031,0.15625 1.8125,0.46875 0.1875,-0.195312 0.320313,-0.410156 0.40625,-0.640625 0.09375,-0.238281 0.15625,-0.503906 0.1875,-0.796875 l 0.15625,-0.09375 1.046875,0.25 c -0.054688,0.4375 -0.183594,0.808594 -0.390625,1.109375 -0.210937,0.304687 -0.507813,0.554687 -0.890625,0.75 v 0.15625 c 0.269531,0.21875 0.472656,0.480469 0.609375,0.78125 0.132813,0.292969 0.203125,0.632813 0.203125,1.015625 0,0.542969 -0.132812,1.03125 -0.390625,1.46875 -0.261719,0.429688 -0.632813,0.765625 -1.109375,1.015625 -0.46875,0.25 -1.015625,0.375 -1.640625,0.375 -0.074219,0 -0.203125,-0.00391 -0.390625,-0.015625 -0.210938,-0.00781 -0.359375,-0.015625 -0.453125,-0.015625 -0.273437,0 -0.492187,0.074219 -0.65625,0.21875 -0.15625,0.136719 -0.234375,0.3125 -0.234375,0.53125 0,0.273437 0.082031,0.46875 0.25,0.59375 0.175781,0.125 0.46875,0.199219 0.875,0.21875 l 2.03125,0.0625 c 0.882812,0.03125 1.535156,0.242187 1.953125,0.625 0.425781,0.375 0.640625,0.910156 0.640625,1.609375 0,0.507812 -0.140625,0.972656 -0.421875,1.390625 -0.273437,0.414063 -0.710937,0.742187 -1.3125,0.984375 -0.59375,0.25 -1.351563,0.375 -2.265625,0.375 z M 4.421875,-4.015625 c 0.613281,0 1.085937,-0.15625 1.421875,-0.46875 0.332031,-0.320313 0.5,-0.769531 0.5,-1.34375 0,-0.59375 -0.167969,-1.050781 -0.5,-1.375 C 5.507812,-7.523438 5.035156,-7.6875 4.421875,-7.6875 c -0.617187,0 -1.085937,0.164062 -1.40625,0.484375 -0.324219,0.3125 -0.484375,0.773437 -0.484375,1.375 0,0.574219 0.160156,1.023437 0.484375,1.34375 0.320313,0.3125 0.789063,0.46875 1.40625,0.46875 z M 4.4375,2.5625 C 5.070312,2.5625 5.59375,2.488281 6,2.34375 6.40625,2.207031 6.695312,2.023438 6.875,1.796875 7.050781,1.566406 7.140625,1.304688 7.140625,1.015625 7.140625,0.765625 7.085938,0.5625 6.984375,0.40625 6.890625,0.25 6.734375,0.128906 6.515625,0.046875 6.304688,-0.0351562 6.019531,-0.0859375 5.65625,-0.109375 l -1.9375,-0.09375 H 3.453125 c -1.085937,0.023437 -1.625,0.441406 -1.625,1.265625 0,1 0.867187,1.5 2.609375,1.5 z m 0,0"
           id="path11" />
      </g>
    </g>
  </g>
  <g
     fill="#000000"
     fill-opacity="1"
     id="g17"
     clip-path="url(#clipPath49)"
     transform="translate(-133.96667,-57.015625)">
    <g
       transform="translate(159.89914,277.30867)"
       id="g16">
      <g
         id="g15">
        <path
           d="m 1.5,0 v -8.625 h 1.21875 v 1.359375 l 0.15625,0.03125 c 0.289062,-0.5 0.65625,-0.878906 1.09375,-1.140625 0.445312,-0.269531 0.992188,-0.40625 1.640625,-0.40625 1.03125,0 1.78125,0.265625 2.25,0.796875 0.46875,0.523437 0.703125,1.335937 0.703125,2.4375 V 0 H 7.28125 v -5.515625 c 0,-0.519531 -0.070312,-0.9375 -0.203125,-1.25 C 6.953125,-7.085938 6.75,-7.316406 6.46875,-7.453125 6.1875,-7.597656 5.820312,-7.671875 5.375,-7.671875 c -0.78125,0 -1.414062,0.257813 -1.890625,0.765625 -0.46875,0.511719 -0.703125,1.339844 -0.703125,2.484375 V 0 Z m 0,0"
           id="path14" />
      </g>
    </g>
  </g>
  <g
     fill="#000000"
     fill-opacity="1"
     id="g20"
     clip-path="url(#clipPath48)"
     transform="translate(-133.96667,-57.015625)">
    <g
       transform="translate(169.8186,277.30867)"
       id="g19">
      <g
         id="g18">
        <path
           d="M 4.953125,0.171875 C 4.140625,0.171875 3.429688,0 2.828125,-0.34375 2.222656,-0.695312 1.757812,-1.207031 1.4375,-1.875 1.113281,-2.539062 0.953125,-3.351562 0.953125,-4.3125 c 0,-0.945312 0.160156,-1.753906 0.484375,-2.421875 0.320312,-0.675781 0.785156,-1.1875 1.390625,-1.53125 0.601563,-0.34375 1.3125,-0.515625 2.125,-0.515625 0.8125,0 1.515625,0.171875 2.109375,0.515625 0.601562,0.34375 1.066406,0.855469 1.390625,1.53125 0.332031,0.667969 0.5,1.476563 0.5,2.421875 0,0.960938 -0.167969,1.773438 -0.5,2.4375 C 8.128906,-1.207031 7.664062,-0.695312 7.0625,-0.34375 6.46875,0 5.765625,0.171875 4.953125,0.171875 Z m 0,-1.15625 c 0.851563,0 1.507813,-0.269531 1.96875,-0.8125 0.457031,-0.539063 0.6875,-1.378906 0.6875,-2.515625 0,-1.132812 -0.230469,-1.972656 -0.6875,-2.515625 -0.460937,-0.539063 -1.117187,-0.8125 -1.96875,-0.8125 -0.867187,0 -1.527344,0.273437 -1.984375,0.8125 -0.460938,0.542969 -0.6875,1.382813 -0.6875,2.515625 0,1.136719 0.226562,1.976562 0.6875,2.515625 0.457031,0.542969 1.117188,0.8125 1.984375,0.8125 z m 0,0"
           id="path17" />
      </g>
    </g>
  </g>
  <g
     fill="#000000"
     fill-opacity="1"
     id="g23"
     clip-path="url(#clipPath47)"
     transform="translate(-133.96667,-57.015625)">
    <g
       transform="translate(179.70681,277.30867)"
       id="g22">
      <g
         id="g21">
        <path
           d="m 1.5,0 v -8.625 h 1.21875 v 1.359375 l 0.15625,0.03125 c 0.40625,-0.976563 1.160156,-1.46875 2.265625,-1.46875 0.59375,0 1.035156,0.109375 1.328125,0.328125 l -0.328125,1.078125 -0.15625,0.03125 c -0.324219,-0.164063 -0.679687,-0.25 -1.0625,-0.25 -0.6875,0 -1.21875,0.261719 -1.59375,0.78125 -0.367187,0.511719 -0.546875,1.34375 -0.546875,2.5 V 0 Z m 0,0"
           id="path20" />
      </g>
    </g>
  </g>
  <g
     fill="#000000"
     fill-opacity="1"
     id="g26"
     clip-path="url(#clipPath46)"
     transform="translate(-133.96667,-57.015625)">
    <g
       transform="translate(186.36143,277.30867)"
       id="g25">
      <g
         id="g24">
        <path
           d="M 8.21875,-4.015625 H 2.296875 c 0.03125,1.042969 0.28125,1.808594 0.75,2.296875 0.46875,0.492188 1.109375,0.734375 1.921875,0.734375 0.613281,0 1.109375,-0.109375 1.484375,-0.328125 0.375,-0.21875 0.664063,-0.5625 0.875,-1.03125 H 7.5 l 0.828125,0.5 c -0.25,0.625 -0.652344,1.121094 -1.203125,1.484375 -0.554688,0.35546875 -1.273438,0.53125 -2.15625,0.53125 -0.835938,0 -1.554688,-0.16796875 -2.15625,-0.5 -0.59375,-0.332031 -1.054688,-0.832031 -1.375,-1.5 C 1.113281,-2.492188 0.953125,-3.320312 0.953125,-4.3125 c 0,-0.976562 0.164063,-1.800781 0.5,-2.46875 0.34375,-0.675781 0.8125,-1.175781 1.40625,-1.5 0.59375,-0.332031 1.269531,-0.5 2.03125,-0.5 1.101563,0 1.960937,0.3125 2.578125,0.9375 0.625,0.617188 0.9375,1.539062 0.9375,2.765625 0,0.480469 -0.011719,0.804687 -0.03125,0.96875 z m -1.0625,-1.0625 c -0.023438,-0.914063 -0.226562,-1.582031 -0.609375,-2 -0.386719,-0.414063 -0.9375,-0.625 -1.65625,-0.625 -0.761719,0 -1.355469,0.210937 -1.78125,0.625 -0.429687,0.417969 -0.6875,1.085937 -0.78125,2 z m 0,0"
           id="path23" />
      </g>
    </g>
  </g>
  <g
     fill="#000000"
     fill-opacity="1"
     id="g29"
     clip-path="url(#clipPath45)"
     transform="translate(-133.96667,-57.015625)">
    <g
       transform="translate(195.54669,277.30867)"
       id="g28">
      <g
         id="g27" />
    </g>
  </g>
  <g
     fill="#000000"
     fill-opacity="1"
     id="g32"
     clip-path="url(#clipPath44)"
     transform="translate(-133.96667,-57.015625)">
    <g
       transform="translate(199.4676,277.30867)"
       id="g31">
      <g
         id="g30">
        <path
           d="m 5.828125,-1.375 0.40625,0.921875 C 6.035156,-0.253906 5.769531,-0.101562 5.4375,0 5.101562,0.113281 4.742188,0.171875 4.359375,0.171875 c -1.648437,0 -2.46875,-0.835937 -2.46875,-2.515625 v -5.234375 h -1.5 V -8.625 h 1.5 v -1.828125 l 1.28125,-0.203125 V -8.625 H 5.9375 v 1.046875 H 3.171875 v 5.109375 c 0,0.992188 0.425781,1.484375 1.28125,1.484375 0.46875,0 0.875,-0.128906 1.21875,-0.390625 z m 0,0"
           id="path29" />
      </g>
    </g>
  </g>
  <g
     fill="#000000"
     fill-opacity="1"
     id="g35"
     clip-path="url(#clipPath43)"
     transform="translate(-133.96667,-57.015625)">
    <g
       transform="translate(206.0285,277.30867)"
       id="g34">
      <g
         id="g33">
        <path
           d="m 1.5,0 v -12.078125 h 1.28125 v 4.6875 l 0.15625,0.03125 c 0.613281,-0.945313 1.503906,-1.421875 2.671875,-1.421875 1.03125,0 1.78125,0.265625 2.25,0.796875 0.46875,0.523437 0.703125,1.335937 0.703125,2.4375 V 0 H 7.28125 v -5.515625 c 0,-0.519531 -0.070312,-0.9375 -0.203125,-1.25 C 6.953125,-7.085938 6.75,-7.316406 6.46875,-7.453125 6.1875,-7.597656 5.820312,-7.671875 5.375,-7.671875 c -0.78125,0 -1.414062,0.257813 -1.890625,0.765625 -0.46875,0.5 -0.703125,1.328125 -0.703125,2.484375 V 0 Z m 0,0"
           id="path32" />
      </g>
    </g>
  </g>
  <g
     fill="#000000"
     fill-opacity="1"
     id="g38"
     clip-path="url(#clipPath42)"
     transform="translate(-133.96667,-57.015625)">
    <g
       transform="translate(215.94795,277.30867)"
       id="g37">
      <g
         id="g36">
        <path
           d="m 2.140625,-10.28125 c -0.273437,0 -0.492187,-0.08203 -0.65625,-0.25 -0.167969,-0.175781 -0.25,-0.394531 -0.25,-0.65625 0,-0.257812 0.082031,-0.472656 0.25,-0.640625 0.164063,-0.164063 0.382813,-0.25 0.65625,-0.25 0.269531,0 0.488281,0.08594 0.65625,0.25 0.175781,0.167969 0.265625,0.382813 0.265625,0.640625 0,0.261719 -0.089844,0.480469 -0.265625,0.65625 -0.167969,0.167969 -0.386719,0.25 -0.65625,0.25 z M 1.5,0 V -8.625 H 2.78125 V 0 Z m 0,0"
           id="path35" />
      </g>
    </g>
  </g>
  <g
     fill="#000000"
     fill-opacity="1"
     id="g41"
     clip-path="url(#clipPath41)"
     transform="translate(-133.96667,-57.015625)">
    <g
       transform="translate(220.22035,277.30867)"
       id="g40">
      <g
         id="g39">
        <path
           d="m 3.9375,0.171875 c -0.542969,0 -1.046875,-0.0742188 -1.515625,-0.21875 C 1.960938,-0.191406 1.570312,-0.390625 1.25,-0.640625 c -0.3125,-0.25 -0.53125,-0.53125 -0.65625,-0.84375 l 0.75,-0.78125 H 1.5 c 0.28125,0.429687 0.617188,0.75 1.015625,0.96875 0.394531,0.210937 0.867187,0.3125 1.421875,0.3125 0.632812,0 1.113281,-0.117187 1.4375,-0.359375 0.332031,-0.25 0.5,-0.597656 0.5,-1.046875 C 5.875,-2.722656 5.773438,-3 5.578125,-3.21875 5.378906,-3.445312 5.054688,-3.613281 4.609375,-3.71875 L 3.15625,-4.078125 C 2.375,-4.265625 1.804688,-4.5625 1.453125,-4.96875 1.097656,-5.375 0.921875,-5.878906 0.921875,-6.484375 c 0,-0.46875 0.117187,-0.875 0.359375,-1.21875 C 1.519531,-8.046875 1.863281,-8.3125 2.3125,-8.5 c 0.445312,-0.1875 0.984375,-0.28125 1.609375,-0.28125 0.789063,0 1.410156,0.109375 1.859375,0.328125 0.457031,0.21875 0.816406,0.527344 1.078125,0.921875 l -0.71875,0.703125 H 5.984375 C 5.703125,-7.140625 5.398438,-7.363281 5.078125,-7.5 4.753906,-7.644531 4.367188,-7.71875 3.921875,-7.71875 c -0.574219,0 -1.011719,0.105469 -1.3125,0.3125 -0.304687,0.199219 -0.453125,0.492188 -0.453125,0.875 0,0.34375 0.101562,0.625 0.3125,0.84375 0.21875,0.210938 0.59375,0.382812 1.125,0.515625 l 1.4375,0.34375 c 0.75,0.179687 1.289062,0.476563 1.625,0.890625 0.332031,0.40625 0.5,0.917969 0.5,1.53125 0,0.511719 -0.121094,0.960938 -0.359375,1.34375 C 6.554688,-0.675781 6.191406,-0.375 5.703125,-0.15625 5.222656,0.0625 4.632812,0.171875 3.9375,0.171875 Z m 0,0"
           id="path38" />
      </g>
    </g>
  </g>
</svg>
