<svg width="3562" height="573" viewBox="0 0 3562 573" fill="none" xmlns="http://www.w3.org/2000/svg">
<path d="M0 391L0 365L2378 365V391L0 391Z" fill="#C6C978"/>
<rect width="1171" height="26" transform="matrix(1 0 0 -1 2391 26)" fill="#ADD8E6"/>
<path d="M2365 24C2365 10.7452 2375.75 0 2389 0H2391V220H2365V24Z" fill="#ADD8E6"/>
<g filter="url(#filter0_d_2899_50)">
<path d="M2391 552V526L3465 526V552L2391 552Z" fill="#C6C978"/>
</g>
<g filter="url(#filter1_d_2899_50)">
<path d="M2365 443H2391V552H2388C2375.3 552 2365 541.703 2365 529V443Z" fill="#C6C978"/>
</g>
<path d="M2365 277H2391V443H2365V277Z" fill="#C6C978"/>
<path d="M2360.38 214.594C2360.38 216.608 2361.18 218.539 2362.6 219.963C2364.02 221.387 2365.95 222.187 2367.97 222.187V232.312C2365.95 232.312 2364.02 233.113 2362.6 234.537C2361.18 235.961 2360.38 237.892 2360.38 239.906V255.094C2360.38 257.108 2361.18 259.039 2362.6 260.463C2364.02 261.887 2365.95 262.688 2367.97 262.688V272.812C2365.95 272.812 2364.02 273.613 2362.6 275.037C2361.18 276.461 2360.38 278.392 2360.38 280.406V288H2395.81V280.406C2395.81 278.392 2395.01 276.461 2393.59 275.037C2392.16 273.613 2390.23 272.812 2388.22 272.812V262.688C2390.23 262.688 2392.16 261.887 2393.59 260.463C2395.01 259.039 2395.81 257.108 2395.81 255.094V239.906C2395.81 237.892 2395.01 235.961 2393.59 234.537C2392.16 233.113 2390.23 232.312 2388.22 232.312V222.187C2390.23 222.187 2392.16 221.387 2393.59 219.963C2395.01 218.539 2395.81 216.608 2395.81 214.594V207H2360.38V214.594ZM2390.75 280.406V282.937H2365.44V280.406C2365.44 279.735 2365.7 279.091 2366.18 278.616C2366.65 278.142 2367.3 277.875 2367.97 277.875H2388.22C2388.89 277.875 2389.53 278.142 2390.01 278.616C2390.48 279.091 2390.75 279.735 2390.75 280.406ZM2383.16 237.375H2388.22C2388.89 237.375 2389.53 237.642 2390.01 238.116C2390.48 238.591 2390.75 239.235 2390.75 239.906V255.094C2390.75 255.765 2390.48 256.409 2390.01 256.884C2389.53 257.358 2388.89 257.625 2388.22 257.625H2383.16V272.812H2373.03V257.625H2367.97C2367.3 257.625 2366.65 257.358 2366.18 256.884C2365.7 256.409 2365.44 255.765 2365.44 255.094V239.906C2365.44 239.235 2365.7 238.591 2366.18 238.116C2366.65 237.642 2367.3 237.375 2367.97 237.375H2373.03V222.187H2383.16V237.375ZM2390.75 212.062V214.594C2390.75 215.265 2390.48 215.909 2390.01 216.384C2389.53 216.858 2388.89 217.125 2388.22 217.125H2367.97C2367.3 217.125 2366.65 216.858 2366.18 216.384C2365.7 215.909 2365.44 215.265 2365.44 214.594V212.062H2390.75Z" fill="white"/>
<path d="M2383.16 237.375H2388.22C2388.89 237.375 2389.53 237.642 2390.01 238.116C2390.48 238.591 2390.75 239.235 2390.75 239.906V255.094C2390.75 255.765 2390.48 256.409 2390.01 256.884C2389.53 257.358 2388.89 257.625 2388.22 257.625H2383.16V272.812H2373.03V257.625H2367.97C2367.3 257.625 2366.65 257.358 2366.18 256.884C2365.7 256.409 2365.44 255.765 2365.44 255.094V239.906C2365.44 239.235 2365.7 238.591 2366.18 238.116C2366.65 237.642 2367.3 237.375 2367.97 237.375H2373.03V222.187H2383.16V237.375Z" fill="url(#paint0_linear_2899_50)"/>
<path d="M2360.38 214.573C2360.38 216.587 2361.18 218.519 2362.6 219.943C2364.02 221.367 2365.95 222.167 2367.97 222.167V232.292C2365.95 232.292 2364.02 233.092 2362.6 234.516C2361.18 235.94 2360.38 237.872 2360.38 239.886V255.073C2360.38 257.087 2361.18 259.019 2362.6 260.443C2364.02 261.867 2365.95 262.667 2367.97 262.667V272.792C2365.95 272.792 2364.02 273.592 2362.6 275.016C2361.18 276.44 2360.38 278.372 2360.38 280.386V287.979H2395.81V280.386C2395.81 278.372 2395.01 276.44 2393.59 275.016C2392.16 273.592 2390.23 272.792 2388.22 272.792V262.667C2390.23 262.667 2392.16 261.867 2393.59 260.443C2395.01 259.019 2395.81 257.087 2395.81 255.073V239.886C2395.81 237.872 2395.01 235.94 2393.59 234.516C2392.16 233.092 2390.23 232.292 2388.22 232.292V222.167C2390.23 222.167 2392.16 221.367 2393.59 219.943C2395.01 218.519 2395.81 216.587 2395.81 214.573V206.979H2360.38V214.573ZM2390.75 280.386V282.917H2365.44V280.386C2365.44 279.714 2365.7 279.071 2366.18 278.596C2366.65 278.121 2367.3 277.854 2367.97 277.854H2388.22C2388.89 277.854 2389.53 278.121 2390.01 278.596C2390.48 279.071 2390.75 279.714 2390.75 280.386ZM2383.16 237.354H2388.22C2388.89 237.354 2389.53 237.621 2390.01 238.096C2390.48 238.571 2390.75 239.214 2390.75 239.886V255.073C2390.75 255.745 2390.48 256.388 2390.01 256.863C2389.53 257.338 2388.89 257.604 2388.22 257.604H2383.16V272.792H2373.03V257.604H2367.97C2367.3 257.604 2366.65 257.338 2366.18 256.863C2365.7 256.388 2365.44 255.745 2365.44 255.073V239.886C2365.44 239.214 2365.7 238.571 2366.18 238.096C2366.65 237.621 2367.3 237.354 2367.97 237.354H2373.03V222.167H2383.16V237.354ZM2390.75 212.042V214.573C2390.75 215.245 2390.48 215.888 2390.01 216.363C2389.53 216.838 2388.89 217.104 2388.22 217.104H2367.97C2367.3 217.104 2366.65 216.838 2366.18 216.363C2365.7 215.888 2365.44 215.245 2365.44 214.573V212.042H2390.75Z" fill="white"/>
<path d="M2345.19 232.312V262.688H2350.25V250.031H2355.31V244.969H2350.25V232.312H2345.19Z" fill="white"/>
<defs>
<filter id="filter0_d_2899_50" x="2376" y="515" width="1104" height="56" filterUnits="userSpaceOnUse" color-interpolation-filters="sRGB">
<feFlood flood-opacity="0" result="BackgroundImageFix"/>
<feColorMatrix in="SourceAlpha" type="matrix" values="0 0 0 0 0 0 0 0 0 0 0 0 0 0 0 0 0 0 127 0" result="hardAlpha"/>
<feOffset dy="4"/>
<feGaussianBlur stdDeviation="7.5"/>
<feComposite in2="hardAlpha" operator="out"/>
<feColorMatrix type="matrix" values="0 0 0 0 0 0 0 0 0 0 0 0 0 0 0 0 0 0 0.25 0"/>
<feBlend mode="normal" in2="BackgroundImageFix" result="effect1_dropShadow_2899_50"/>
<feBlend mode="normal" in="SourceGraphic" in2="effect1_dropShadow_2899_50" result="shape"/>
</filter>
<filter id="filter1_d_2899_50" x="2348" y="430" width="60" height="143" filterUnits="userSpaceOnUse" color-interpolation-filters="sRGB">
<feFlood flood-opacity="0" result="BackgroundImageFix"/>
<feColorMatrix in="SourceAlpha" type="matrix" values="0 0 0 0 0 0 0 0 0 0 0 0 0 0 0 0 0 0 127 0" result="hardAlpha"/>
<feMorphology radius="2" operator="dilate" in="SourceAlpha" result="effect1_dropShadow_2899_50"/>
<feOffset dy="4"/>
<feGaussianBlur stdDeviation="7.5"/>
<feComposite in2="hardAlpha" operator="out"/>
<feColorMatrix type="matrix" values="0 0 0 0 0 0 0 0 0 0 0 0 0 0 0 0 0 0 0.25 0"/>
<feBlend mode="normal" in2="BackgroundImageFix" result="effect1_dropShadow_2899_50"/>
<feBlend mode="normal" in="SourceGraphic" in2="effect1_dropShadow_2899_50" result="shape"/>
</filter>
<linearGradient id="paint0_linear_2899_50" x1="2378.09" y1="288" x2="2378.09" y2="207" gradientUnits="userSpaceOnUse">
<stop offset="0.17873" stop-color="#C6C978"/>
<stop offset="0.88873" stop-color="#ADD8E6"/>
</linearGradient>
</defs>
</svg>
